# xmcd
#
# Track frame offsets:
#	150
#	24449
#	39301
#	64549
#	79595
#
# Disc length: 1260 seconds
#
# Revision: 1
# Processed by: cddbd v1.5.2PL0 Copyright (c) Steve Scherf et al.
# Submitted via: audiograbber 1.83.01
#
DISCID=2d04ea05
DTITLE=Jason Derulo - In My Head - Warner Brothers Promo
DYEAR=2010
DGENRE=Dance
TTITLE0=In My Head (Wideboys Club Mix)
TTITLE1=In My Head (Wideboys Radio Mix)
TTITLE2=In My Head (Wideboys Dub Mix)
TTITLE3=In My Head (Remix No Rap Main Recall)
TTITLE4=In My Head
EXTD=
EXTT0=
EXTT1=
EXTT2=
EXTT3=
EXTT4=
PLAYORDER=
